<?xml version="1.0" encoding="UTF-8"?>
<!DOCTYPE svg PUBLIC "-//W3C//DTD SVG 1.1//EN" "http://www.w3.org/Graphics/SVG/1.1/DTD/svg11.dtd">
<svg xmlns="http://www.w3.org/2000/svg" version="1.1" width="225px" height="225px" style="shape-rendering:geometricPrecision; text-rendering:geometricPrecision; image-rendering:optimizeQuality; fill-rule:evenodd; clip-rule:evenodd" xmlns:xlink="http://www.w3.org/1999/xlink">
<g><path style="opacity:0.989" fill="#080808" d="M 176.5,51.5 C 177.873,55.3077 177.54,58.9744 175.5,62.5C 173.833,63.5 172.5,64.8333 171.5,66.5C 168.833,68.5 166.5,70.8333 164.5,73.5C 162.833,74.5 161.5,75.8333 160.5,77.5C 157.833,79.5 155.5,81.8333 153.5,84.5C 150.833,86.5 148.5,88.8333 146.5,91.5C 144.833,92.5 143.5,93.8333 142.5,95.5C 139.833,97.5 137.5,99.8333 135.5,102.5C 133.833,103.5 132.5,104.833 131.5,106.5C 128.758,108.181 127.091,110.181 126.5,112.5C 143.132,129.632 159.965,146.632 177,163.5C 177.464,164.094 177.631,164.761 177.5,165.5C 177.814,173.852 173.814,177.852 165.5,177.5C 164.761,177.631 164.094,177.464 163.5,177C 146.632,159.965 129.632,143.132 112.5,126.5C 110.181,127.091 108.181,128.758 106.5,131.5C 104.833,132.5 103.5,133.833 102.5,135.5C 99.8333,137.5 97.5,139.833 95.5,142.5C 93.8333,143.5 92.5,144.833 91.5,146.5C 88.8333,148.5 86.5,150.833 84.5,153.5C 81.8333,155.5 79.5,157.833 77.5,160.5C 75.8333,161.5 74.5,162.833 73.5,164.5C 70.8333,166.5 68.5,168.833 66.5,171.5C 64.8333,172.5 63.5,173.833 62.5,175.5C 59.3652,177.023 56.0318,177.69 52.5,177.5C 51.7377,175.738 50.4044,174.738 48.5,174.5C 45.6891,170.369 45.8558,166.369 49,162.5C 65.6807,145.986 82.1807,129.319 98.5,112.5C 81.8473,95.3472 65.014,78.3472 48,61.5C 45.1667,49.6667 49.6667,45.1667 61.5,48C 78.3472,65.014 95.3472,81.8473 112.5,98.5C 130.015,81.1518 147.681,63.9851 165.5,47C 169.12,46.1593 172.454,46.826 175.5,49C 176.252,49.6708 176.586,50.5041 176.5,51.5 Z"/></g>
<g><path style="opacity:0.19" fill="#e0e0e0" d="M 176.5,51.5 C 178.026,52.4919 178.693,53.9919 178.5,56C 178.68,58.8021 177.68,60.9687 175.5,62.5C 177.54,58.9744 177.873,55.3077 176.5,51.5 Z"/></g>
<g><path style="opacity:0.568" fill="#fefefe" d="M 175.5,62.5 C 175.167,64.8333 173.833,66.1667 171.5,66.5C 172.5,64.8333 173.833,63.5 175.5,62.5 Z"/></g>
<g><path style="opacity:0.512" fill="#fefefe" d="M 171.5,66.5 C 170.167,69.8333 167.833,72.1667 164.5,73.5C 166.5,70.8333 168.833,68.5 171.5,66.5 Z"/></g>
<g><path style="opacity:0.555" fill="#fefefe" d="M 164.5,73.5 C 164.167,75.8333 162.833,77.1667 160.5,77.5C 161.5,75.8333 162.833,74.5 164.5,73.5 Z"/></g>
<g><path style="opacity:0.51" fill="#fefefe" d="M 160.5,77.5 C 159.167,80.8333 156.833,83.1667 153.5,84.5C 155.5,81.8333 157.833,79.5 160.5,77.5 Z"/></g>
<g><path style="opacity:0.513" fill="#fefefe" d="M 153.5,84.5 C 152.167,87.8333 149.833,90.1667 146.5,91.5C 148.5,88.8333 150.833,86.5 153.5,84.5 Z"/></g>
<g><path style="opacity:0.553" fill="#fefefe" d="M 146.5,91.5 C 146.167,93.8333 144.833,95.1667 142.5,95.5C 143.5,93.8333 144.833,92.5 146.5,91.5 Z"/></g>
<g><path style="opacity:0.51" fill="#fefefe" d="M 142.5,95.5 C 141.167,98.8333 138.833,101.167 135.5,102.5C 137.5,99.8333 139.833,97.5 142.5,95.5 Z"/></g>
<g><path style="opacity:0.546" fill="#fefefe" d="M 135.5,102.5 C 135.167,104.833 133.833,106.167 131.5,106.5C 132.5,104.833 133.833,103.5 135.5,102.5 Z"/></g>
<g><path style="opacity:0.537" fill="#fefefe" d="M 131.5,106.5 C 130.581,109.089 128.914,111.089 126.5,112.5C 127.091,110.181 128.758,108.181 131.5,106.5 Z"/></g>
<g><path style="opacity:0.528" fill="#fefefe" d="M 112.5,126.5 C 111.089,128.914 109.089,130.581 106.5,131.5C 108.181,128.758 110.181,127.091 112.5,126.5 Z"/></g>
<g><path style="opacity:0.548" fill="#fefefe" d="M 106.5,131.5 C 106.167,133.833 104.833,135.167 102.5,135.5C 103.5,133.833 104.833,132.5 106.5,131.5 Z"/></g>
<g><path style="opacity:0.508" fill="#fefefe" d="M 102.5,135.5 C 101.167,138.833 98.8333,141.167 95.5,142.5C 97.5,139.833 99.8333,137.5 102.5,135.5 Z"/></g>
<g><path style="opacity:0.55" fill="#fefefe" d="M 95.5,142.5 C 95.1667,144.833 93.8333,146.167 91.5,146.5C 92.5,144.833 93.8333,143.5 95.5,142.5 Z"/></g>
<g><path style="opacity:0.51" fill="#fefefe" d="M 91.5,146.5 C 90.1667,149.833 87.8333,152.167 84.5,153.5C 86.5,150.833 88.8333,148.5 91.5,146.5 Z"/></g>
<g><path style="opacity:0.513" fill="#fefefe" d="M 84.5,153.5 C 83.1667,156.833 80.8333,159.167 77.5,160.5C 79.5,157.833 81.8333,155.5 84.5,153.5 Z"/></g>
<g><path style="opacity:0.546" fill="#fefefe" d="M 77.5,160.5 C 77.1667,162.833 75.8333,164.167 73.5,164.5C 74.5,162.833 75.8333,161.5 77.5,160.5 Z"/></g>
<g><path style="opacity:0.511" fill="#fefefe" d="M 73.5,164.5 C 72.1667,167.833 69.8333,170.167 66.5,171.5C 68.5,168.833 70.8333,166.5 73.5,164.5 Z"/></g>
<g><path style="opacity:0.562" fill="#fefefe" d="M 66.5,171.5 C 66.1667,173.833 64.8333,175.167 62.5,175.5C 63.5,173.833 64.8333,172.5 66.5,171.5 Z"/></g>
<g><path style="opacity:0.488" fill="#ededed" d="M 177.5,165.5 C 179.663,171.03 177.996,175.197 172.5,178C 169.961,178.796 167.628,178.629 165.5,177.5C 173.814,177.852 177.814,173.852 177.5,165.5 Z"/></g>
<g><path style="opacity:1" fill="#7e7e7e" d="M 48.5,174.5 C 50.4044,174.738 51.7377,175.738 52.5,177.5C 50.5956,177.262 49.2623,176.262 48.5,174.5 Z"/></g>
<g><path style="opacity:0.812" fill="#f0f0f0" d="M 62.5,175.5 C 61.9423,176.79 60.9423,177.623 59.5,178C 56.9615,178.796 54.6282,178.629 52.5,177.5C 56.0318,177.69 59.3652,177.023 62.5,175.5 Z"/></g>
</svg>
