<?xml version="1.0" encoding="UTF-8"?>
<!DOCTYPE svg PUBLIC "-//W3C//DTD SVG 1.1//EN" "http://www.w3.org/Graphics/SVG/1.1/DTD/svg11.dtd">
<svg xmlns="http://www.w3.org/2000/svg" version="1.1" width="225px" height="225px" style="shape-rendering:geometricPrecision; text-rendering:geometricPrecision; image-rendering:optimizeQuality; fill-rule:evenodd; clip-rule:evenodd" xmlns:xlink="http://www.w3.org/1999/xlink">
<g><path style="opacity:0.978" fill="#0d0d0d" d="M 212.5,40.5 C 214.081,47.5214 211.748,52.5214 205.5,55.5C 143.668,56.6653 81.668,56.832 19.5,56C 11.3874,52.3258 9.22075,46.4924 13,38.5C 14.5429,36.6217 16.3762,35.1217 18.5,34C 81.1667,33.3333 143.833,33.3333 206.5,34C 209.409,35.4055 211.409,37.5722 212.5,40.5 Z"/></g>
<g><path style="opacity:0.178" fill="#d8d8d8" d="M 212.5,40.5 C 215.185,45.2878 214.519,49.7878 210.5,54C 208.975,55.0086 207.308,55.5086 205.5,55.5C 211.748,52.5214 214.081,47.5214 212.5,40.5 Z"/></g>
<g><path style="opacity:0.999" fill="#0c0c0c" d="M 212.5,107.5 C 214.234,115.544 211.234,120.71 203.5,123C 142.501,123.5 81.5009,123.667 20.5,123.5C 14.446,122.441 11.1127,118.774 10.5,112.5C 11.4148,105.418 15.4148,101.585 22.5,101C 82.8333,100.333 143.167,100.333 203.5,101C 207.981,101.231 210.981,103.397 212.5,107.5 Z"/></g>
<g><path style="opacity:0.191" fill="#f9f9f9" d="M 212.5,107.5 C 215.705,115.597 213.038,121.097 204.5,124C 142.999,124.832 81.6653,124.665 20.5,123.5C 81.5009,123.667 142.501,123.5 203.5,123C 211.234,120.71 214.234,115.544 212.5,107.5 Z"/></g>
<g><path style="opacity:0.965" fill="#000000" d="M 212.5,175.5 C 214.225,182.445 211.892,187.278 205.5,190C 143.168,190.5 80.8342,190.667 18.5,190.5C 11.1644,186.659 9.33111,180.993 13,173.5C 14.5429,171.622 16.3762,170.122 18.5,169C 81.1667,168.333 143.833,168.333 206.5,169C 209.733,170.099 211.733,172.265 212.5,175.5 Z"/></g>
<g><path style="opacity:0.73" fill="#dbdbdb" d="M 212.5,175.5 C 215.576,182.421 213.576,187.587 206.5,191C 143.665,191.832 80.9987,191.665 18.5,190.5C 80.8342,190.667 143.168,190.5 205.5,190C 211.892,187.278 214.225,182.445 212.5,175.5 Z"/></g>
</svg>
